<svg xmlns="http://www.w3.org/2000/svg" width="123" height="54.66" viewBox="0 0 123 54.66" aria-hidden="true" id="default" class="injected-svg inject-svg logo">
    <polygon points="48.84 33.45 68.03 0 90.3 0 90.3 33.45 76.92 33.45 76.92 11.18 63.63 33.45 48.84 33.45 48.84 33.45" fill="#ffc930"></polygon>
    <polygon points="41.71 0 22.52 33.45 0.26 33.45 0.26 0 13.63 0 13.63 22.27 26.93 0 41.71 0 41.71 0" fill="#ffc930"></polygon>
    <polygon points="46.99 0 62.84 0 43.39 33.45 27.54 33.45 46.99 0 46.99 0" fill="#ffc930"></polygon>
    <path d="M109.68,33.39s-.2-7.47-.2-8,.27-.62.7-.43l6.48,1.44-.9-3a1.19,1.19,0,0,1,.35-1.17c.35-.39,6.89-6.05,6.89-6.05l-1.78-1.36a.86.86,0,0,1-.18-1.09c.29-.62,1.63-3.44,1.63-3.44L119,11.2a.86.86,0,0,1-1-.38l-1-2h0s-1.83,1.71-3.34,3.1c-.54.51-1,0-.87-.51l1.63-7.26s-2.22.59-2.65.69a.86.86,0,0,1-1-.56c-.29-.62-2.21-4.28-2.21-4.28s-1.91,3.65-2.2,4.28a.85.85,0,0,1-1,.56c-.43-.1-2.65-.69-2.65-.69l1.64,7.26c.12.51-.32,1-.87.51-1.52-1.39-3.35-3.1-3.35-3.1h0l-1,2a.85.85,0,0,1-1,.38l-3.69-.92,1.63,3.44a.85.85,0,0,1-.18,1.09l-1.77,1.36s6.55,5.66,6.9,6.05a1.19,1.19,0,0,1,.35,1.17l-.89,3L107,24.95c.43-.2.7-.12.7.43s-.19,8-.19,8Z" fill="#ea212e"></path>
    <path d="M18.46,54.14c-.54-.17-1-.55-1-1.71V43.29c0-1.17.46-1.55,1-1.71.34-.11.39-.27,0-.27H14.82c-.39,0-.34.16,0,.27.57.18.86.49.86,1.75v9.07c0,1.26-.29,1.57-.86,1.75-.34.11-.39.27,0,.27h3.64c.39,0,.34-.16,0-.27Z" fill="#231f20" style="fill: var(--svg-text-primary-color);" fill-rule="evenodd"></path>
    <path d="M13.89,41.3c.53,0,.06.24.06.24a3.55,3.55,0,0,0-.61.28C12.64,42.16,12,44,12,44,10.46,47.43,7.41,54.11,7.27,54.3s-.21.27-.38.27-.47-.07-.69-.64c-1-2.93-3.32-8.55-3.8-9.63-.71-1.55-.63-2.22-2.08-2.66-.14,0-.62-.23-.07-.33H5.82c.42.1-.34.33-.34.33-1,.25-1.37.84-1.37,1.49a5.85,5.85,0,0,0,.64,2c.91,2.27,1.85,4.55,2.65,6.8,0,0,.9-2,1.26-2.78l2.12-4.79a4.9,4.9,0,0,0,.47-1.66,1.25,1.25,0,0,0-.83-1.13s-.74-.18-.16-.3l1.57,0c.58,0,1.52,0,2.08,0" fill="#231f20" style="fill: var(--svg-text-primary-color);"></path>
    <path d="M27.31,48.73c-.62,0-1.26.07-1.88.07-.11,0-1.3,0-1.88-.07l1.94-4.83,1.83,4.83Zm-7.82,5.41c-.51.24-.12.28-.12.28H23c.44,0,.19-.25.19-.25a1.32,1.32,0,0,1-1-1.21,5.81,5.81,0,0,1,.4-1.39c.22-.6.46-1.21.69-1.83.82,0,1.44-.05,2.16-.05s1.5,0,2.25.05c.28.77.75,2,1,2.76a2,2,0,0,1,.11.57.62.62,0,0,1-.12.41,1,1,0,0,1-.74.59s-.53.19-.3.33l.34,0c.93,0,1.6,0,2.54,0,.47,0,.93,0,1.4,0h.53c.5-.1-.18-.3-.18-.3a1.94,1.94,0,0,1-1.36-.94,10.81,10.81,0,0,1-.6-1.48l-3.82-10c-.11-.31-.13-.38-.37-.38s-.31,0-.46.38l-3.47,8.63c-.9,2.18-1.26,2.81-1.7,3.2a2.42,2.42,0,0,1-.95.61Z" fill="#231f20" style="fill: var(--svg-text-primary-color);"></path>
    <path d="M55.09,53.54a.82.82,0,0,1-.72.42c-.48,0-.8-.38-.8-1.07V48.74c0-.91.23-2.59-2.9-2.59-1.59,0-3,.54-3,1.43a.78.78,0,0,0,.75.82c1.43,0,.45-1.87,2-1.87,1.26,0,1.44,1.23,1.44,1.75,0,.91,0,1.23-.62,1.55-1.13.64-4,.19-4,2.61,0,1.83,1.92,2.06,2.68,2.06a2.91,2.91,0,0,0,1.94-.77,2.29,2.29,0,0,0,1.9.8,1.59,1.59,0,0,0,1.55-.76c.13-.24-.17-.41-.3-.21Zm-3.21-1.21a1.58,1.58,0,0,1-1.51,1.72A1.31,1.31,0,0,1,49,52.74c0-1.47,1.45-2,2.44-2.5l.25-.13c.13-.07.16,0,.16.22v2Z" fill="#231f20" style="fill: var(--svg-text-primary-color);"></path>
    <path d="M56.35,42.47a1,1,0,0,1,2,0,1,1,0,0,1-1,1,1,1,0,0,1-.71-.29,1,1,0,0,1-.29-.71Z" fill="#231f20" style="fill: var(--svg-text-primary-color);"></path>
    <path d="M59.43,54.15c-.54-.17-1-.57-1-1.74V48.29h0V46.92c0-.47,0-.63-.41-.57s-2.48.15-2.78.19-.15.21.15.21c.9,0,1.23.89,1.3,1.91V52.4c0,1.26-.29,1.57-.86,1.75-.34.11-.39.27,0,.27h3.64c.39,0,.34-.16,0-.27Z" fill="#231f20" style="fill: var(--svg-text-primary-color);"></path>
    <path d="M64,54.14c-.54-.17-1-.59-1-1.75V48.81h0c0-2,0-3.54,0-4.79h0V42c0-.47,0-.63-.41-.57s-2.48.15-2.78.19-.15.21.15.21c1,0,1.32,1.2,1.32,2.41h0c0,.51,0,1.15,0,1.59v2.48h0v4.12c0,1.26-.29,1.57-.86,1.75-.34.11-.39.27,0,.27H64c.39,0,.34-.16,0-.27Z" fill="#231f20" style="fill: var(--svg-text-primary-color);"></path>
    <path d="M47.55,54.17a3.88,3.88,0,0,1-2.47-1.75h0l-.54-.66c-.27-.33-2.22-2.9-2.66-3.45a4.54,4.54,0,0,0,2.94-1.78,2.69,2.69,0,0,0,.42-1.5,3.5,3.5,0,0,0-1.74-3,5.6,5.6,0,0,0-3-.76s-1.8,0-2.08,0-2.5.12-2.79.17-.15.27.15.27c1,0,1.25,1.18,1.27,2.32v.15c0,2.16,0,3.8,0,5.07h0c0,1.11-.12,2.7-.12,3,0,1.26-.29,1.67-.86,1.85-.34.11-.39.27,0,.27H39.8c.39,0,.34-.16,0-.27-.54-.17-1-.67-1-1.84v-3h0c0-.29,0-.57,0-.81,1.2,0,1.26.07,2.15,1.19.58.73,3.19,4.22,3.56,4.62a.21.21,0,0,0,.2.11l.87,0h2c.39,0,.34-.16,0-.27ZM40,47.94a8.89,8.89,0,0,1-1.2-.07V42c.47,0,.79-.05,1.19-.05a3.39,3.39,0,0,1,2.48.75,3.39,3.39,0,0,1,.84,2.24c0,1.69-1,3-3.3,3Z" fill="#231f20" style="fill: var(--svg-text-primary-color);"></path>
    <path d="M103.63,53.5a.82.82,0,0,1-.72.42c-.48,0-.79-.38-.79-1.07V48.69c0-.92.23-2.59-2.9-2.59-1.59,0-3,.53-3,1.43a.78.78,0,0,0,.75.82c1.43,0,.45-1.87,2-1.87,1.26,0,1.44,1.23,1.44,1.75,0,.91,0,1.23-.62,1.55-1.13.64-4,.19-4,2.61,0,1.83,1.92,2.06,2.68,2.06a2.9,2.9,0,0,0,1.94-.77,2.28,2.28,0,0,0,1.9.8,1.59,1.59,0,0,0,1.55-.76c.13-.24-.18-.4-.3-.21Zm-3.21-1.21A1.58,1.58,0,0,1,98.92,54a1.31,1.31,0,0,1-1.35-1.31c0-1.47,1.45-2,2.44-2.5l.25-.13c.13-.07.16,0,.16.22v2Z" fill="#231f20" style="fill: var(--svg-text-primary-color);"></path>
    <path d="M88.6,46.26l-2.17.32c-.32,0-.3.28,0,.28.82,0,1.06,1,1.06,1.56v3.95c0,1.26-.29,1.57-.86,1.75-.34.11-.39.26,0,.26h3.53c.39,0,.34-.16,0-.26-.54-.17-1-.59-1-1.75V49.79c0-2.43,1-3,2.11-3,1.29,0,1.54,1,1.54,2.15v3.42c0,1.26-.29,1.57-.86,1.75-.34.11-.39.26,0,.26h3.64c.39,0,.34-.16,0-.26-.54-.17-1-.59-1-1.75V48.94c0-1.41-.24-2.7-2.37-2.7a4.17,4.17,0,0,0-2.63.72c-.23.19-.36.29-.4,0-.1-.55-.09-.81-.51-.73Z" fill="#231f20" style="fill: var(--svg-text-primary-color);"></path>
    <path d="M86.15,53.5a.82.82,0,0,1-.72.42c-.48,0-.8-.38-.8-1.07V48.69c0-.92.23-2.59-2.9-2.59-1.59,0-3,.53-3,1.43a.78.78,0,0,0,.75.82c1.43,0,.45-1.87,2-1.87,1.26,0,1.44,1.23,1.44,1.75,0,.91,0,1.23-.62,1.55-1.14.64-4,.19-4,2.61,0,1.83,1.92,2.06,2.68,2.06A2.9,2.9,0,0,0,83,53.68a2.28,2.28,0,0,0,1.9.8,1.59,1.59,0,0,0,1.55-.76.18.18,0,1,0-.3-.21Zm-3.2-1.21A1.58,1.58,0,0,1,81.44,54a1.31,1.31,0,0,1-1.35-1.31c0-1.47,1.45-2,2.44-2.5l.25-.13c.13-.07.16,0,.16.22v2Z" fill="#231f20" style="fill: var(--svg-text-primary-color);"></path>
    <path d="M112.78,53.91c-.63-.05-1.07-.72-1.07-1.84V41.87c0-.47,0-.64-.41-.57s-2.48.15-2.78.19-.15.21.15.21c1,0,1.35.82,1.35,2v2.79c0,.18,0,.35-.24.2a3.34,3.34,0,0,0-1.75-.65,4,4,0,0,0-4.35,4.1c0,2.92,1.79,4.29,4.3,4.29a3.52,3.52,0,0,0,1.87-.63c.11-.08.22-.11.26.16s0,.52.49.46,1.94-.29,2.16-.29.24-.24,0-.25Zm-4.64.13c-2.26,0-2.63-2.75-2.63-3.75,0-2.78,1.54-3.77,2.5-3.77a2,2,0,0,1,1.87,1.7,16.69,16.69,0,0,1,.17,2.82c0,.86-.19,3-1.91,3Z" fill="#231f20" style="fill: var(--svg-text-primary-color);"></path>
    <path d="M116.57,45.19s0-.76,0-.82,0-.06.07,0l.66.15-.09-.31a.12.12,0,0,1,0-.12l.7-.62-.18-.14a.09.09,0,0,1,0-.11l.17-.35-.38.09a.09.09,0,0,1-.11,0l-.1-.21h0L117,43c-.05.05-.1,0-.09-.05l.17-.74-.27.07a.09.09,0,0,1-.1-.06l-.23-.44-.22.44a.09.09,0,0,1-.1.06l-.27-.07L116,43c0,.05,0,.1-.09.05l-.34-.32h0l-.1.21a.09.09,0,0,1-.11,0l-.38-.09.17.35a.09.09,0,0,1,0,.11l-.18.14s.67.58.71.62a.12.12,0,0,1,0,.12l-.09.31.66-.15s.07,0,.07,0,0,.82,0,.82Z" fill="#ea212e"></path>
    <polygon points="114.58 45.5 114.58 41.4 112.63 41.4 112.63 45.5 114.58 45.5 114.58 45.5" fill="#ea212e"></polygon>
    <polygon points="120.25 45.5 120.25 41.4 118.3 41.4 118.3 45.5 120.25 45.5 120.25 45.5" fill="#ea212e"></polygon>
    <path d="M77.14,41.48c-.13.32-.13.39-.43.39a11.38,11.38,0,0,0-3-.68c-3.92,0-6.59,3.19-6.59,7a6.33,6.33,0,0,0,6.22,6.49,4.77,4.77,0,0,0,5-4c.09-.5-.39-.64-.5-.15-.55,2.33-2,3.44-3.86,3.44-2.85,0-4.36-2.22-4.36-5.63,0-4.91,2.37-6.67,4.13-6.67,2.46,0,3,2,3.63,3.62.08.27.14.54.39.51s.17,0,.17-.42c0-.7-.23-3.08-.23-3.65s-.4-.51-.49-.28Z" fill="#231f20" style="fill: var(--svg-text-primary-color);"></path>
    <path d="M121.1,53.71c.13-.24-.17-.4-.3-.21a.82.82,0,0,1-.72.42c-.48,0-.8-.38-.8-1.07V48.69c0-.92.23-2.59-2.9-2.59-1.59,0-3,.53-3,1.43a.78.78,0,0,0,.75.82c1.43,0,.45-1.87,2-1.87,1.26,0,1.44,1.23,1.44,1.75,0,.91,0,1.23-.62,1.55-1.13.64-4,.19-4,2.61,0,1.83,1.92,2.06,2.68,2.06a2.9,2.9,0,0,0,1.94-.77,2.29,2.29,0,0,0,1.9.8,1.59,1.59,0,0,0,1.55-.76Zm-3.5-1.42A1.58,1.58,0,0,1,116.09,54a1.31,1.31,0,0,1-1.35-1.31c0-1.47,1.45-2,2.44-2.5l.25-.13c.13-.07.16,0,.16.22v2Z" fill="#231f20" style="fill: var(--svg-text-primary-color);"></path>
</svg>